<mxfile host="app.diagrams.net" agent="Mozilla/5.0 (Windows NT 10.0; Win64; x64) AppleWebKit/537.36 (KHTML, like Gecko) Chrome/129.0.0.0 Safari/537.36" version="24.7.16">
  <diagram name="第 1 页" id="Ojd6gW_RFucvh78dmrdz">
    <mxGraphModel dx="1728" dy="915" grid="1" gridSize="10" guides="1" tooltips="1" connect="1" arrows="1" fold="1" page="1" pageScale="1" pageWidth="2339" pageHeight="3300" math="0" shadow="0">
      <root>
        <mxCell id="0" />
        <mxCell id="1" parent="0" />
        <mxCell id="DQPE6J1DFhllN8RgHGh3-11" style="edgeStyle=orthogonalEdgeStyle;rounded=0;orthogonalLoop=1;jettySize=auto;html=1;exitX=0.5;exitY=0;exitDx=0;exitDy=0;entryX=0.5;entryY=0;entryDx=0;entryDy=0;elbow=vertical;curved=1;" edge="1" parent="1" source="DQPE6J1DFhllN8RgHGh3-1" target="DQPE6J1DFhllN8RgHGh3-5">
          <mxGeometry relative="1" as="geometry" />
        </mxCell>
        <mxCell id="DQPE6J1DFhllN8RgHGh3-1" value="&lt;font style=&quot;font-size: 32px;&quot;&gt;0&lt;/font&gt;" style="ellipse;whiteSpace=wrap;html=1;aspect=fixed;" vertex="1" parent="1">
          <mxGeometry x="710" y="450" width="80" height="80" as="geometry" />
        </mxCell>
        <mxCell id="DQPE6J1DFhllN8RgHGh3-12" style="edgeStyle=orthogonalEdgeStyle;rounded=0;orthogonalLoop=1;jettySize=auto;html=1;exitX=0.5;exitY=0;exitDx=0;exitDy=0;entryX=0.5;entryY=0;entryDx=0;entryDy=0;curved=1;" edge="1" parent="1" source="DQPE6J1DFhllN8RgHGh3-5" target="DQPE6J1DFhllN8RgHGh3-6">
          <mxGeometry relative="1" as="geometry" />
        </mxCell>
        <mxCell id="DQPE6J1DFhllN8RgHGh3-5" value="&lt;font style=&quot;font-size: 32px;&quot;&gt;4&lt;/font&gt;" style="ellipse;whiteSpace=wrap;html=1;aspect=fixed;" vertex="1" parent="1">
          <mxGeometry x="850" y="450" width="80" height="80" as="geometry" />
        </mxCell>
        <mxCell id="DQPE6J1DFhllN8RgHGh3-13" style="edgeStyle=orthogonalEdgeStyle;rounded=0;orthogonalLoop=1;jettySize=auto;html=1;exitX=0.5;exitY=0;exitDx=0;exitDy=0;entryX=0.5;entryY=0;entryDx=0;entryDy=0;curved=1;" edge="1" parent="1" source="DQPE6J1DFhllN8RgHGh3-6" target="DQPE6J1DFhllN8RgHGh3-7">
          <mxGeometry relative="1" as="geometry" />
        </mxCell>
        <mxCell id="DQPE6J1DFhllN8RgHGh3-6" value="&lt;font style=&quot;font-size: 32px;&quot;&gt;1&lt;/font&gt;" style="ellipse;whiteSpace=wrap;html=1;aspect=fixed;" vertex="1" parent="1">
          <mxGeometry x="990" y="450" width="80" height="80" as="geometry" />
        </mxCell>
        <mxCell id="DQPE6J1DFhllN8RgHGh3-14" style="edgeStyle=orthogonalEdgeStyle;rounded=0;orthogonalLoop=1;jettySize=auto;html=1;exitX=0.5;exitY=0;exitDx=0;exitDy=0;entryX=0.5;entryY=0;entryDx=0;entryDy=0;curved=1;" edge="1" parent="1" source="DQPE6J1DFhllN8RgHGh3-7" target="DQPE6J1DFhllN8RgHGh3-8">
          <mxGeometry relative="1" as="geometry" />
        </mxCell>
        <mxCell id="DQPE6J1DFhllN8RgHGh3-7" value="&lt;font style=&quot;font-size: 32px;&quot;&gt;2&lt;/font&gt;" style="ellipse;whiteSpace=wrap;html=1;aspect=fixed;" vertex="1" parent="1">
          <mxGeometry x="1130" y="450" width="80" height="80" as="geometry" />
        </mxCell>
        <mxCell id="DQPE6J1DFhllN8RgHGh3-15" style="edgeStyle=orthogonalEdgeStyle;rounded=0;orthogonalLoop=1;jettySize=auto;html=1;exitX=0.5;exitY=0;exitDx=0;exitDy=0;entryX=0.5;entryY=0;entryDx=0;entryDy=0;curved=1;" edge="1" parent="1" source="DQPE6J1DFhllN8RgHGh3-8" target="DQPE6J1DFhllN8RgHGh3-9">
          <mxGeometry relative="1" as="geometry" />
        </mxCell>
        <mxCell id="DQPE6J1DFhllN8RgHGh3-8" value="&lt;font style=&quot;font-size: 32px;&quot;&gt;1&lt;/font&gt;" style="ellipse;whiteSpace=wrap;html=1;aspect=fixed;" vertex="1" parent="1">
          <mxGeometry x="1270" y="450" width="80" height="80" as="geometry" />
        </mxCell>
        <mxCell id="DQPE6J1DFhllN8RgHGh3-9" value="&lt;font style=&quot;font-size: 32px;&quot;&gt;2&lt;/font&gt;" style="ellipse;whiteSpace=wrap;html=1;aspect=fixed;" vertex="1" parent="1">
          <mxGeometry x="1410" y="450" width="80" height="80" as="geometry" />
        </mxCell>
        <mxCell id="DQPE6J1DFhllN8RgHGh3-10" value="&lt;font style=&quot;font-size: 30px;&quot;&gt;...&lt;/font&gt;" style="text;html=1;align=center;verticalAlign=middle;whiteSpace=wrap;rounded=0;" vertex="1" parent="1">
          <mxGeometry x="1540" y="460" width="60" height="30" as="geometry" />
        </mxCell>
        <mxCell id="DQPE6J1DFhllN8RgHGh3-16" value="&lt;font style=&quot;font-size: 30px;&quot;&gt;pfDepth&lt;/font&gt;" style="text;html=1;align=center;verticalAlign=middle;whiteSpace=wrap;rounded=0;" vertex="1" parent="1">
          <mxGeometry x="510" y="465" width="260" height="50" as="geometry" />
        </mxCell>
        <mxCell id="DQPE6J1DFhllN8RgHGh3-19" style="edgeStyle=orthogonalEdgeStyle;rounded=0;orthogonalLoop=1;jettySize=auto;html=1;exitX=0.5;exitY=1;exitDx=0;exitDy=0;entryX=0;entryY=0;entryDx=0;entryDy=0;curved=1;" edge="1" parent="1" source="DQPE6J1DFhllN8RgHGh3-17" target="DQPE6J1DFhllN8RgHGh3-1">
          <mxGeometry relative="1" as="geometry" />
        </mxCell>
        <mxCell id="DQPE6J1DFhllN8RgHGh3-17" value="&lt;font style=&quot;font-size: 24px;&quot;&gt;demand miss&lt;/font&gt;" style="text;html=1;align=center;verticalAlign=middle;whiteSpace=wrap;rounded=0;" vertex="1" parent="1">
          <mxGeometry x="610" y="390" width="180" height="50" as="geometry" />
        </mxCell>
        <mxCell id="DQPE6J1DFhllN8RgHGh3-21" style="edgeStyle=orthogonalEdgeStyle;rounded=0;orthogonalLoop=1;jettySize=auto;html=1;exitX=0.25;exitY=1;exitDx=0;exitDy=0;entryX=0;entryY=0;entryDx=0;entryDy=0;curved=1;" edge="1" parent="1" source="DQPE6J1DFhllN8RgHGh3-20" target="DQPE6J1DFhllN8RgHGh3-5">
          <mxGeometry relative="1" as="geometry" />
        </mxCell>
        <mxCell id="DQPE6J1DFhllN8RgHGh3-20" value="&lt;font style=&quot;font-size: 24px;&quot;&gt;prefetch hit&lt;/font&gt;" style="text;html=1;align=center;verticalAlign=middle;whiteSpace=wrap;rounded=0;" vertex="1" parent="1">
          <mxGeometry x="760" y="350" width="180" height="50" as="geometry" />
        </mxCell>
        <mxCell id="DQPE6J1DFhllN8RgHGh3-23" value="&lt;span style=&quot;font-size: 24px;&quot;&gt;reinforcement&lt;/span&gt;" style="text;html=1;align=center;verticalAlign=middle;whiteSpace=wrap;rounded=0;" vertex="1" parent="1">
          <mxGeometry x="870" y="390" width="180" height="50" as="geometry" />
        </mxCell>
        <mxCell id="DQPE6J1DFhllN8RgHGh3-25" style="edgeStyle=orthogonalEdgeStyle;rounded=0;orthogonalLoop=1;jettySize=auto;html=1;exitX=0.25;exitY=1;exitDx=0;exitDy=0;entryX=0;entryY=0;entryDx=0;entryDy=0;curved=1;" edge="1" parent="1" source="DQPE6J1DFhllN8RgHGh3-24" target="DQPE6J1DFhllN8RgHGh3-7">
          <mxGeometry relative="1" as="geometry" />
        </mxCell>
        <mxCell id="DQPE6J1DFhllN8RgHGh3-24" value="&lt;font style=&quot;font-size: 24px;&quot;&gt;prefetch hit&lt;/font&gt;" style="text;html=1;align=center;verticalAlign=middle;whiteSpace=wrap;rounded=0;" vertex="1" parent="1">
          <mxGeometry x="1070" y="350" width="180" height="50" as="geometry" />
        </mxCell>
        <mxCell id="DQPE6J1DFhllN8RgHGh3-26" value="&lt;span style=&quot;font-size: 24px;&quot;&gt;reinforcement&lt;/span&gt;" style="text;html=1;align=center;verticalAlign=middle;whiteSpace=wrap;rounded=0;" vertex="1" parent="1">
          <mxGeometry x="1150" y="390" width="180" height="50" as="geometry" />
        </mxCell>
        <mxCell id="DQPE6J1DFhllN8RgHGh3-28" style="edgeStyle=orthogonalEdgeStyle;rounded=0;orthogonalLoop=1;jettySize=auto;html=1;exitX=0.25;exitY=1;exitDx=0;exitDy=0;entryX=0;entryY=0;entryDx=0;entryDy=0;curved=1;" edge="1" parent="1" source="DQPE6J1DFhllN8RgHGh3-27" target="DQPE6J1DFhllN8RgHGh3-9">
          <mxGeometry relative="1" as="geometry" />
        </mxCell>
        <mxCell id="DQPE6J1DFhllN8RgHGh3-27" value="&lt;font style=&quot;font-size: 24px;&quot;&gt;prefetch hit&lt;/font&gt;" style="text;html=1;align=center;verticalAlign=middle;whiteSpace=wrap;rounded=0;" vertex="1" parent="1">
          <mxGeometry x="1350" y="350" width="180" height="50" as="geometry" />
        </mxCell>
        <mxCell id="DQPE6J1DFhllN8RgHGh3-29" value="&lt;font style=&quot;font-size: 26px;&quot;&gt;CDP&lt;/font&gt;" style="rounded=0;whiteSpace=wrap;html=1;fillColor=#fad7ac;strokeColor=#b46504;" vertex="1" parent="1">
          <mxGeometry x="400" y="1080" width="100" height="60" as="geometry" />
        </mxCell>
        <mxCell id="DQPE6J1DFhllN8RgHGh3-30" value="" style="rounded=0;whiteSpace=wrap;html=1;fillColor=none;dashed=1;dashPattern=1 4;fontStyle=1;strokeWidth=2;strokeColor=#FF0000;" vertex="1" parent="1">
          <mxGeometry x="850" y="910" width="580" height="260" as="geometry" />
        </mxCell>
        <mxCell id="DQPE6J1DFhllN8RgHGh3-71" style="edgeStyle=orthogonalEdgeStyle;rounded=0;orthogonalLoop=1;jettySize=auto;html=1;exitX=0.5;exitY=0;exitDx=0;exitDy=0;entryX=0;entryY=0.75;entryDx=0;entryDy=0;fillColor=#e1d5e7;strokeColor=#9673a6;" edge="1" parent="1" source="DQPE6J1DFhllN8RgHGh3-31" target="DQPE6J1DFhllN8RgHGh3-29">
          <mxGeometry relative="1" as="geometry">
            <Array as="points">
              <mxPoint x="1133" y="690" />
              <mxPoint x="290" y="690" />
              <mxPoint x="290" y="1125" />
            </Array>
          </mxGeometry>
        </mxCell>
        <mxCell id="DQPE6J1DFhllN8RgHGh3-31" value="&lt;font style=&quot;font-size: 26px;&quot;&gt;Dcache&lt;/font&gt;" style="rounded=0;whiteSpace=wrap;html=1;" vertex="1" parent="1">
          <mxGeometry x="1042.5" y="700" width="180" height="90" as="geometry" />
        </mxCell>
        <mxCell id="DQPE6J1DFhllN8RgHGh3-50" style="edgeStyle=orthogonalEdgeStyle;rounded=0;orthogonalLoop=1;jettySize=auto;html=1;entryX=0.5;entryY=1;entryDx=0;entryDy=0;fillColor=#fad7ac;strokeColor=#b46504;" edge="1" parent="1" source="DQPE6J1DFhllN8RgHGh3-33" target="DQPE6J1DFhllN8RgHGh3-49">
          <mxGeometry relative="1" as="geometry" />
        </mxCell>
        <mxCell id="DQPE6J1DFhllN8RgHGh3-33" value="&lt;font style=&quot;font-size: 26px;&quot;&gt;L3 Cache&lt;/font&gt;" style="rounded=0;whiteSpace=wrap;html=1;fillColor=#fad7ac;strokeColor=#b46504;" vertex="1" parent="1">
          <mxGeometry x="1042.5" y="1270" width="180" height="90" as="geometry" />
        </mxCell>
        <mxCell id="DQPE6J1DFhllN8RgHGh3-59" style="edgeStyle=orthogonalEdgeStyle;rounded=0;orthogonalLoop=1;jettySize=auto;html=1;exitX=0.5;exitY=0;exitDx=0;exitDy=0;entryX=0;entryY=0.5;entryDx=0;entryDy=0;fillColor=#d5e8d4;strokeColor=#82b366;gradientColor=#97d077;" edge="1" parent="1" source="DQPE6J1DFhllN8RgHGh3-34" target="DQPE6J1DFhllN8RgHGh3-29">
          <mxGeometry relative="1" as="geometry">
            <Array as="points">
              <mxPoint x="1025" y="840" />
              <mxPoint x="320" y="840" />
              <mxPoint x="320" y="1110" />
            </Array>
          </mxGeometry>
        </mxCell>
        <mxCell id="DQPE6J1DFhllN8RgHGh3-68" style="edgeStyle=orthogonalEdgeStyle;rounded=0;orthogonalLoop=1;jettySize=auto;html=1;exitX=0.669;exitY=-0.008;exitDx=0;exitDy=0;entryX=0.25;entryY=1;entryDx=0;entryDy=0;exitPerimeter=0;" edge="1" parent="1" source="DQPE6J1DFhllN8RgHGh3-34" target="DQPE6J1DFhllN8RgHGh3-64">
          <mxGeometry relative="1" as="geometry">
            <Array as="points">
              <mxPoint x="1081" y="960" />
              <mxPoint x="1101" y="960" />
            </Array>
          </mxGeometry>
        </mxCell>
        <mxCell id="DQPE6J1DFhllN8RgHGh3-34" value="" style="rounded=0;whiteSpace=wrap;html=1;dashed=1;dashPattern=1 2;fillColor=none;" vertex="1" parent="1">
          <mxGeometry x="860" y="990" width="330" height="70" as="geometry" />
        </mxCell>
        <mxCell id="DQPE6J1DFhllN8RgHGh3-54" style="edgeStyle=orthogonalEdgeStyle;rounded=0;orthogonalLoop=1;jettySize=auto;html=1;exitX=1.004;exitY=0.833;exitDx=0;exitDy=0;entryX=0.5;entryY=1;entryDx=0;entryDy=0;exitPerimeter=0;fillColor=#fad7ac;strokeColor=#b46504;" edge="1" parent="1" source="DQPE6J1DFhllN8RgHGh3-35" target="DQPE6J1DFhllN8RgHGh3-29">
          <mxGeometry relative="1" as="geometry">
            <Array as="points">
              <mxPoint x="1530" y="1120" />
              <mxPoint x="1530" y="1440" />
              <mxPoint x="450" y="1440" />
            </Array>
          </mxGeometry>
        </mxCell>
        <mxCell id="DQPE6J1DFhllN8RgHGh3-67" style="edgeStyle=orthogonalEdgeStyle;rounded=0;orthogonalLoop=1;jettySize=auto;html=1;exitX=-0.01;exitY=0.171;exitDx=0;exitDy=0;entryX=0.75;entryY=1;entryDx=0;entryDy=0;exitPerimeter=0;" edge="1" parent="1" source="DQPE6J1DFhllN8RgHGh3-35" target="DQPE6J1DFhllN8RgHGh3-64">
          <mxGeometry relative="1" as="geometry">
            <Array as="points">
              <mxPoint x="1319" y="960" />
              <mxPoint x="1164" y="960" />
            </Array>
          </mxGeometry>
        </mxCell>
        <mxCell id="DQPE6J1DFhllN8RgHGh3-74" style="edgeStyle=orthogonalEdgeStyle;rounded=0;orthogonalLoop=1;jettySize=auto;html=1;exitX=0.5;exitY=1;exitDx=0;exitDy=0;entryX=1;entryY=0.5;entryDx=0;entryDy=0;fillColor=#fad7ac;strokeColor=#b46504;" edge="1" parent="1" source="DQPE6J1DFhllN8RgHGh3-35" target="DQPE6J1DFhllN8RgHGh3-33">
          <mxGeometry relative="1" as="geometry" />
        </mxCell>
        <mxCell id="DQPE6J1DFhllN8RgHGh3-35" value="" style="rounded=0;whiteSpace=wrap;html=1;dashed=1;dashPattern=1 4;fillColor=none;" vertex="1" parent="1">
          <mxGeometry x="1320" y="920" width="75" height="240" as="geometry" />
        </mxCell>
        <mxCell id="DQPE6J1DFhllN8RgHGh3-36" value="&lt;font style=&quot;font-size: 24px;&quot;&gt;mainpipe&lt;/font&gt;" style="text;html=1;align=center;verticalAlign=middle;whiteSpace=wrap;rounded=0;" vertex="1" parent="1">
          <mxGeometry x="860" y="990" width="110" height="40" as="geometry" />
        </mxCell>
        <mxCell id="DQPE6J1DFhllN8RgHGh3-37" value="&lt;font style=&quot;font-size: 24px;&quot;&gt;mshr&lt;/font&gt;" style="text;html=1;align=center;verticalAlign=middle;whiteSpace=wrap;rounded=0;" vertex="1" parent="1">
          <mxGeometry x="1301.25" y="920" width="112.5" height="40" as="geometry" />
        </mxCell>
        <mxCell id="DQPE6J1DFhllN8RgHGh3-43" style="edgeStyle=orthogonalEdgeStyle;rounded=0;orthogonalLoop=1;jettySize=auto;html=1;exitX=1;exitY=0.5;exitDx=0;exitDy=-5;exitPerimeter=0;entryX=0;entryY=0.5;entryDx=0;entryDy=0;fillColor=#fad7ac;strokeColor=#b46504;" edge="1" parent="1" source="DQPE6J1DFhllN8RgHGh3-38" target="DQPE6J1DFhllN8RgHGh3-34">
          <mxGeometry relative="1" as="geometry" />
        </mxCell>
        <mxCell id="DQPE6J1DFhllN8RgHGh3-38" value="Mux" style="shadow=0;dashed=0;align=center;html=1;strokeWidth=1;shape=mxgraph.electrical.abstract.mux2;whiteSpace=wrap;" vertex="1" parent="1">
          <mxGeometry x="760" y="970" width="80" height="120" as="geometry" />
        </mxCell>
        <mxCell id="DQPE6J1DFhllN8RgHGh3-41" style="edgeStyle=orthogonalEdgeStyle;rounded=0;orthogonalLoop=1;jettySize=auto;html=1;exitX=0;exitY=0.5;exitDx=0;exitDy=0;entryX=0;entryY=0.21666666666666667;entryDx=0;entryDy=3;entryPerimeter=0;" edge="1" parent="1" source="DQPE6J1DFhllN8RgHGh3-31" target="DQPE6J1DFhllN8RgHGh3-38">
          <mxGeometry relative="1" as="geometry" />
        </mxCell>
        <mxCell id="DQPE6J1DFhllN8RgHGh3-44" value="Mux" style="shadow=0;dashed=0;align=center;html=1;strokeWidth=1;shape=mxgraph.electrical.abstract.mux2;whiteSpace=wrap;fillColor=#fad7ac;strokeColor=#b46504;" vertex="1" parent="1">
          <mxGeometry x="600" y="1030" width="80" height="120" as="geometry" />
        </mxCell>
        <mxCell id="DQPE6J1DFhllN8RgHGh3-45" style="edgeStyle=orthogonalEdgeStyle;rounded=0;orthogonalLoop=1;jettySize=auto;html=1;exitX=1;exitY=0.5;exitDx=0;exitDy=0;entryX=0.122;entryY=0.671;entryDx=0;entryDy=0;entryPerimeter=0;fillColor=#fad7ac;strokeColor=#b46504;" edge="1" parent="1" source="DQPE6J1DFhllN8RgHGh3-29" target="DQPE6J1DFhllN8RgHGh3-44">
          <mxGeometry relative="1" as="geometry" />
        </mxCell>
        <mxCell id="DQPE6J1DFhllN8RgHGh3-46" value="&lt;font style=&quot;font-size: 26px;&quot;&gt;Other Prefetcher&lt;/font&gt;" style="rounded=0;whiteSpace=wrap;html=1;" vertex="1" parent="1">
          <mxGeometry x="340" y="930" width="190" height="70" as="geometry" />
        </mxCell>
        <mxCell id="DQPE6J1DFhllN8RgHGh3-47" style="edgeStyle=orthogonalEdgeStyle;rounded=0;orthogonalLoop=1;jettySize=auto;html=1;exitX=1;exitY=0.5;exitDx=0;exitDy=0;entryX=0;entryY=0.21666666666666667;entryDx=0;entryDy=3;entryPerimeter=0;" edge="1" parent="1" source="DQPE6J1DFhllN8RgHGh3-46" target="DQPE6J1DFhllN8RgHGh3-44">
          <mxGeometry relative="1" as="geometry" />
        </mxCell>
        <mxCell id="DQPE6J1DFhllN8RgHGh3-48" style="edgeStyle=orthogonalEdgeStyle;rounded=0;orthogonalLoop=1;jettySize=auto;html=1;exitX=1;exitY=0.5;exitDx=0;exitDy=-5;exitPerimeter=0;fillColor=#fad7ac;strokeColor=#b46504;" edge="1" parent="1" source="DQPE6J1DFhllN8RgHGh3-44">
          <mxGeometry relative="1" as="geometry">
            <mxPoint x="770" y="1050" as="targetPoint" />
          </mxGeometry>
        </mxCell>
        <mxCell id="DQPE6J1DFhllN8RgHGh3-49" value="&lt;font style=&quot;font-size: 24px;&quot;&gt;SinkD&lt;/font&gt;" style="rounded=0;whiteSpace=wrap;html=1;dashed=1;dashPattern=1 2;fillColor=#fad7ac;strokeColor=#b46504;" vertex="1" parent="1">
          <mxGeometry x="1070" y="1150" width="125" height="40" as="geometry" />
        </mxCell>
        <mxCell id="DQPE6J1DFhllN8RgHGh3-51" value="&lt;font style=&quot;font-size: 24px;&quot;&gt;refill&lt;/font&gt;" style="text;html=1;align=center;verticalAlign=middle;whiteSpace=wrap;rounded=0;" vertex="1" parent="1">
          <mxGeometry x="1050" y="1210" width="110" height="40" as="geometry" />
        </mxCell>
        <mxCell id="DQPE6J1DFhllN8RgHGh3-52" style="edgeStyle=orthogonalEdgeStyle;rounded=0;orthogonalLoop=1;jettySize=auto;html=1;exitX=0.5;exitY=0;exitDx=0;exitDy=0;entryX=-0.01;entryY=0.831;entryDx=0;entryDy=0;entryPerimeter=0;fillColor=#fad7ac;strokeColor=#b46504;" edge="1" parent="1" source="DQPE6J1DFhllN8RgHGh3-49" target="DQPE6J1DFhllN8RgHGh3-35">
          <mxGeometry relative="1" as="geometry" />
        </mxCell>
        <mxCell id="DQPE6J1DFhllN8RgHGh3-53" value="&lt;font style=&quot;font-size: 24px;&quot;&gt;find mshr (sourceID)&lt;/font&gt;" style="text;html=1;align=center;verticalAlign=middle;whiteSpace=wrap;rounded=0;" vertex="1" parent="1">
          <mxGeometry x="1170" y="1090" width="120" height="60" as="geometry" />
        </mxCell>
        <mxCell id="DQPE6J1DFhllN8RgHGh3-56" value="+ data&lt;div&gt;+ pfDepth&lt;/div&gt;&lt;div&gt;+ addr&lt;/div&gt;&lt;div&gt;+ .....&lt;/div&gt;" style="shape=folder;fontStyle=1;tabWidth=80;tabHeight=30;tabPosition=left;html=1;boundedLbl=1;whiteSpace=wrap;align=left;fillColor=#fad7ac;strokeColor=#b46504;" vertex="1" parent="1">
          <mxGeometry x="1480" y="1220" width="130" height="90" as="geometry" />
        </mxCell>
        <mxCell id="DQPE6J1DFhllN8RgHGh3-57" value="&lt;font style=&quot;font-size: 24px;&quot;&gt;detect block data&lt;/font&gt;&lt;div&gt;&lt;span style=&quot;font-size: 24px;&quot;&gt;trigger prefetch&lt;br&gt;&lt;/span&gt;&lt;div&gt;&lt;br&gt;&lt;/div&gt;&lt;/div&gt;" style="text;html=1;align=center;verticalAlign=middle;whiteSpace=wrap;rounded=0;" vertex="1" parent="1">
          <mxGeometry x="450" y="1380" width="210" height="60" as="geometry" />
        </mxCell>
        <mxCell id="DQPE6J1DFhllN8RgHGh3-60" value="+ hit&lt;div&gt;+ pfDepth&lt;/div&gt;&lt;div&gt;+ pfSource&lt;/div&gt;&lt;div&gt;+ data&lt;/div&gt;&lt;div&gt;+ addr&lt;/div&gt;" style="shape=folder;fontStyle=1;tabWidth=80;tabHeight=30;tabPosition=left;html=1;boundedLbl=1;whiteSpace=wrap;align=left;fillColor=#d5e8d4;strokeColor=#82b366;gradientColor=#97d077;" vertex="1" parent="1">
          <mxGeometry x="540" y="770" width="130" height="110" as="geometry" />
        </mxCell>
        <mxCell id="DQPE6J1DFhllN8RgHGh3-62" value="&lt;font style=&quot;font-size: 24px;&quot;&gt;miss/hit info&lt;/font&gt;" style="text;html=1;align=center;verticalAlign=middle;whiteSpace=wrap;rounded=0;" vertex="1" parent="1">
          <mxGeometry x="860" y="805" width="152.5" height="40" as="geometry" />
        </mxCell>
        <mxCell id="DQPE6J1DFhllN8RgHGh3-63" style="edgeStyle=orthogonalEdgeStyle;rounded=0;orthogonalLoop=1;jettySize=auto;html=1;exitX=1;exitY=0.5;exitDx=0;exitDy=0;entryX=0.027;entryY=0.438;entryDx=0;entryDy=0;entryPerimeter=0;fillColor=#fad7ac;strokeColor=#b46504;" edge="1" parent="1" source="DQPE6J1DFhllN8RgHGh3-34" target="DQPE6J1DFhllN8RgHGh3-35">
          <mxGeometry relative="1" as="geometry" />
        </mxCell>
        <mxCell id="DQPE6J1DFhllN8RgHGh3-66" style="edgeStyle=orthogonalEdgeStyle;rounded=0;orthogonalLoop=1;jettySize=auto;html=1;exitX=0.5;exitY=0;exitDx=0;exitDy=0;entryX=0.5;entryY=1;entryDx=0;entryDy=0;" edge="1" parent="1" source="DQPE6J1DFhllN8RgHGh3-64" target="DQPE6J1DFhllN8RgHGh3-31">
          <mxGeometry relative="1" as="geometry" />
        </mxCell>
        <mxCell id="DQPE6J1DFhllN8RgHGh3-64" value="&lt;font style=&quot;font-size: 24px;&quot;&gt;SourceD&lt;/font&gt;" style="rounded=0;whiteSpace=wrap;html=1;dashed=1;dashPattern=1 2;fillColor=default;" vertex="1" parent="1">
          <mxGeometry x="1070" y="890" width="125" height="40" as="geometry" />
        </mxCell>
        <mxCell id="DQPE6J1DFhllN8RgHGh3-69" value="&lt;font style=&quot;font-size: 24px;&quot;&gt;refill&lt;/font&gt;" style="text;html=1;align=center;verticalAlign=middle;whiteSpace=wrap;rounded=0;" vertex="1" parent="1">
          <mxGeometry x="1080" y="930" width="110" height="40" as="geometry" />
        </mxCell>
        <mxCell id="DQPE6J1DFhllN8RgHGh3-70" value="&lt;font style=&quot;font-size: 24px;&quot;&gt;refill&lt;/font&gt;" style="text;html=1;align=center;verticalAlign=middle;whiteSpace=wrap;rounded=0;" vertex="1" parent="1">
          <mxGeometry x="1080" y="830" width="110" height="40" as="geometry" />
        </mxCell>
        <mxCell id="DQPE6J1DFhllN8RgHGh3-72" value="+ hit&lt;div&gt;+ addr&lt;/div&gt;&lt;div&gt;+ pfSource&lt;/div&gt;&lt;div&gt;+ data&lt;/div&gt;" style="shape=folder;fontStyle=1;tabWidth=80;tabHeight=30;tabPosition=left;html=1;boundedLbl=1;whiteSpace=wrap;align=left;fillColor=#e1d5e7;strokeColor=#9673a6;" vertex="1" parent="1">
          <mxGeometry x="580" y="650" width="120" height="90" as="geometry" />
        </mxCell>
        <mxCell id="DQPE6J1DFhllN8RgHGh3-75" value="&lt;span style=&quot;font-size: 24px;&quot;&gt;Acquire&lt;/span&gt;" style="text;html=1;align=center;verticalAlign=middle;whiteSpace=wrap;rounded=0;" vertex="1" parent="1">
          <mxGeometry x="1240" y="1270" width="110" height="40" as="geometry" />
        </mxCell>
        <mxCell id="DQPE6J1DFhllN8RgHGh3-76" value="&lt;span style=&quot;font-size: 24px;&quot;&gt;Acquire&lt;/span&gt;" style="text;html=1;align=center;verticalAlign=middle;whiteSpace=wrap;rounded=0;" vertex="1" parent="1">
          <mxGeometry x="860" y="710" width="152.5" height="40" as="geometry" />
        </mxCell>
        <mxCell id="DQPE6J1DFhllN8RgHGh3-77" value="&lt;span style=&quot;font-size: 24px;&quot;&gt;prefetch&lt;/span&gt;" style="text;html=1;align=center;verticalAlign=middle;whiteSpace=wrap;rounded=0;" vertex="1" parent="1">
          <mxGeometry x="478.75" y="1070" width="152.5" height="40" as="geometry" />
        </mxCell>
      </root>
    </mxGraphModel>
  </diagram>
</mxfile>
